STARTFONT 2.1
FONT -Fondu-Espy Serif-Medium-R-Normal--14-130-75-75-P-79-MacRoman-1
SIZE 13 75 75
FONTBOUNDINGBOX 17 17 -2 -3
COMMENT Created by Fondu from a mac NFNT/FONT resource
STARTPROPERTIES 17
FOUNDRY "Fondu"
FAMILY_NAME "Espy Serif"
WEIGHT_NAME "Medium"
SLANT "R"
SETWIDTH_NAME "Normal"
ADD_STYLE_NAME ""
PIXEL_SIZE 14
POINT_SIZE 130
RESOLUTION_X 75
RESOLUTION_Y 75
SPACING "P"
AVERAGE_WIDTH 79
CHARSET_REGISTRY "MacRoman"
CHARSET_ENCODING "1"
FONT_ASCENT 14
FONT_DESCENT 3
FACE_NAME "Espy Serif 14"
ENDPROPERTIES
CHARS 224
STARTCHAR space
ENCODING 32
SWIDTH 285 0
DWIDTH 4 0
BBX 0 0 -2 -3
BITMAP
ENDCHAR
STARTCHAR exclam
ENCODING 33
SWIDTH 285 0
DWIDTH 4 0
BBX 1 11 1 0
BITMAP
80
80
80
80
80
80
80
80
00
80
80
ENDCHAR
STARTCHAR quotedbl
ENCODING 34
SWIDTH 285 0
DWIDTH 4 0
BBX 3 4 0 8
BITMAP
A0
A0
A0
A0
ENDCHAR
STARTCHAR numbersign
ENCODING 35
SWIDTH 714 0
DWIDTH 10 0
BBX 9 10 0 0
BITMAP
0900
0900
1200
7F80
1200
2400
FF00
2400
4800
4800
ENDCHAR
STARTCHAR dollar
ENCODING 36
SWIDTH 428 0
DWIDTH 6 0
BBX 5 12 0 -1
BITMAP
20
70
A8
A0
A0
60
30
28
28
A8
70
20
ENDCHAR
STARTCHAR percent
ENCODING 37
SWIDTH 785 0
DWIDTH 11 0
BBX 10 11 0 0
BITMAP
6700
9900
9200
9400
6400
0800
0980
1240
2240
2240
4180
ENDCHAR
STARTCHAR ampersand
ENCODING 38
SWIDTH 714 0
DWIDTH 10 0
BBX 9 11 0 0
BITMAP
3800
4400
4400
4800
3000
3380
4900
8500
8200
8500
7880
ENDCHAR
STARTCHAR quotesingle
ENCODING 39
SWIDTH 142 0
DWIDTH 2 0
BBX 1 4 0 8
BITMAP
80
80
80
80
ENDCHAR
STARTCHAR parenleft
ENCODING 40
SWIDTH 285 0
DWIDTH 4 0
BBX 3 14 0 -2
BITMAP
20
40
40
80
80
80
80
80
80
80
80
40
40
20
ENDCHAR
STARTCHAR parenright
ENCODING 41
SWIDTH 285 0
DWIDTH 4 0
BBX 3 14 0 -2
BITMAP
80
40
40
20
20
20
20
20
20
20
20
40
40
80
ENDCHAR
STARTCHAR asterisk
ENCODING 42
SWIDTH 428 0
DWIDTH 6 0
BBX 5 5 0 7
BITMAP
50
20
F8
20
50
ENDCHAR
STARTCHAR plus
ENCODING 43
SWIDTH 571 0
DWIDTH 8 0
BBX 7 7 0 1
BITMAP
10
10
10
FE
10
10
10
ENDCHAR
STARTCHAR comma
ENCODING 44
SWIDTH 214 0
DWIDTH 3 0
BBX 2 3 0 -1
BITMAP
40
40
80
ENDCHAR
STARTCHAR hyphen
ENCODING 45
SWIDTH 428 0
DWIDTH 6 0
BBX 5 1 0 5
BITMAP
F8
ENDCHAR
STARTCHAR period
ENCODING 46
SWIDTH 214 0
DWIDTH 3 0
BBX 1 2 1 0
BITMAP
80
80
ENDCHAR
STARTCHAR slash
ENCODING 47
SWIDTH 500 0
DWIDTH 7 0
BBX 7 14 0 -2
BITMAP
02
02
04
04
08
08
10
10
20
20
40
40
80
80
ENDCHAR
STARTCHAR zero
ENCODING 48
SWIDTH 571 0
DWIDTH 8 0
BBX 7 11 0 0
BITMAP
38
44
82
82
82
82
82
82
82
44
38
ENDCHAR
STARTCHAR one
ENCODING 49
SWIDTH 500 0
DWIDTH 7 0
BBX 5 11 1 0
BITMAP
20
60
A0
20
20
20
20
20
20
20
F8
ENDCHAR
STARTCHAR two
ENCODING 50
SWIDTH 571 0
DWIDTH 8 0
BBX 7 11 0 0
BITMAP
7C
82
82
02
04
08
10
20
42
82
FE
ENDCHAR
STARTCHAR three
ENCODING 51
SWIDTH 571 0
DWIDTH 8 0
BBX 7 11 0 0
BITMAP
78
84
04
04
38
04
02
02
02
84
78
ENDCHAR
STARTCHAR four
ENCODING 52
SWIDTH 642 0
DWIDTH 9 0
BBX 8 11 0 0
BITMAP
04
08
14
24
44
84
FF
04
04
04
0E
ENDCHAR
STARTCHAR five
ENCODING 53
SWIDTH 571 0
DWIDTH 8 0
BBX 7 11 0 0
BITMAP
FC
80
80
80
F8
04
02
02
02
84
78
ENDCHAR
STARTCHAR six
ENCODING 54
SWIDTH 571 0
DWIDTH 8 0
BBX 7 11 0 0
BITMAP
18
20
40
80
B8
C4
82
82
82
44
38
ENDCHAR
STARTCHAR seven
ENCODING 55
SWIDTH 571 0
DWIDTH 8 0
BBX 7 11 0 0
BITMAP
FE
82
02
04
08
08
10
10
20
20
20
ENDCHAR
STARTCHAR eight
ENCODING 56
SWIDTH 571 0
DWIDTH 8 0
BBX 7 11 0 0
BITMAP
38
44
44
44
38
44
82
82
82
44
38
ENDCHAR
STARTCHAR nine
ENCODING 57
SWIDTH 571 0
DWIDTH 8 0
BBX 7 11 0 0
BITMAP
38
44
82
82
82
46
3A
02
04
08
30
ENDCHAR
STARTCHAR colon
ENCODING 58
SWIDTH 214 0
DWIDTH 3 0
BBX 1 8 1 0
BITMAP
80
80
00
00
00
00
80
80
ENDCHAR
STARTCHAR semicolon
ENCODING 59
SWIDTH 214 0
DWIDTH 3 0
BBX 2 9 0 -1
BITMAP
40
40
00
00
00
00
40
40
80
ENDCHAR
STARTCHAR less
ENCODING 60
SWIDTH 571 0
DWIDTH 8 0
BBX 7 7 0 1
BITMAP
02
0C
30
C0
30
0C
02
ENDCHAR
STARTCHAR equal
ENCODING 61
SWIDTH 642 0
DWIDTH 9 0
BBX 8 4 0 3
BITMAP
FF
00
00
FF
ENDCHAR
STARTCHAR greater
ENCODING 62
SWIDTH 571 0
DWIDTH 8 0
BBX 7 7 0 1
BITMAP
80
60
18
06
18
60
80
ENDCHAR
STARTCHAR question
ENCODING 63
SWIDTH 571 0
DWIDTH 8 0
BBX 6 11 0 0
BITMAP
78
84
84
04
08
10
20
20
00
20
20
ENDCHAR
STARTCHAR at
ENCODING 64
SWIDTH 785 0
DWIDTH 11 0
BBX 10 8 0 0
BITMAP
3F00
4080
8C40
9240
9240
8D80
4000
3F00
ENDCHAR
STARTCHAR A
ENCODING 65
SWIDTH 714 0
DWIDTH 10 0
BBX 11 11 -1 0
BITMAP
0400
0400
0A00
0A00
1100
1100
2080
3F80
4040
4040
E0E0
ENDCHAR
STARTCHAR B
ENCODING 66
SWIDTH 642 0
DWIDTH 9 0
BBX 8 11 0 0
BITMAP
FC
42
42
42
7C
42
41
41
41
42
FC
ENDCHAR
STARTCHAR C
ENCODING 67
SWIDTH 714 0
DWIDTH 10 0
BBX 9 11 0 0
BITMAP
1E80
2180
4080
8000
8000
8000
8000
8000
4080
2100
1E00
ENDCHAR
STARTCHAR D
ENCODING 68
SWIDTH 714 0
DWIDTH 10 0
BBX 9 11 0 0
BITMAP
FC00
4200
4100
4080
4080
4080
4080
4080
4100
4200
FC00
ENDCHAR
STARTCHAR E
ENCODING 69
SWIDTH 642 0
DWIDTH 9 0
BBX 8 11 0 0
BITMAP
FF
41
40
40
42
7E
42
40
40
41
FF
ENDCHAR
STARTCHAR F
ENCODING 70
SWIDTH 642 0
DWIDTH 9 0
BBX 8 11 0 0
BITMAP
FF
41
40
40
42
7E
42
40
40
40
E0
ENDCHAR
STARTCHAR G
ENCODING 71
SWIDTH 785 0
DWIDTH 11 0
BBX 10 11 0 0
BITMAP
1E80
2180
4080
8000
8000
8000
83C0
8080
4080
2180
1E00
ENDCHAR
STARTCHAR H
ENCODING 72
SWIDTH 785 0
DWIDTH 11 0
BBX 10 11 0 0
BITMAP
E1C0
4080
4080
4080
4080
7F80
4080
4080
4080
4080
E1C0
ENDCHAR
STARTCHAR I
ENCODING 73
SWIDTH 285 0
DWIDTH 4 0
BBX 3 11 0 0
BITMAP
E0
40
40
40
40
40
40
40
40
40
E0
ENDCHAR
STARTCHAR J
ENCODING 74
SWIDTH 285 0
DWIDTH 4 0
BBX 5 14 -2 -3
BITMAP
38
10
10
10
10
10
10
10
10
10
10
10
20
C0
ENDCHAR
STARTCHAR K
ENCODING 75
SWIDTH 714 0
DWIDTH 10 0
BBX 10 11 0 0
BITMAP
E380
4200
4400
4800
5000
7000
4800
4400
4200
4100
E1C0
ENDCHAR
STARTCHAR L
ENCODING 76
SWIDTH 642 0
DWIDTH 9 0
BBX 8 11 0 0
BITMAP
E0
40
40
40
40
40
40
40
40
41
FF
ENDCHAR
STARTCHAR M
ENCODING 77
SWIDTH 1000 0
DWIDTH 14 0
BBX 13 11 0 0
BITMAP
E038
6030
5050
5050
4890
4890
4510
4510
4210
4210
E238
ENDCHAR
STARTCHAR N
ENCODING 78
SWIDTH 785 0
DWIDTH 11 0
BBX 10 11 0 0
BITMAP
E1C0
6080
5080
5080
4880
4480
4480
4280
4280
4180
E080
ENDCHAR
STARTCHAR O
ENCODING 79
SWIDTH 785 0
DWIDTH 11 0
BBX 10 11 0 0
BITMAP
1E00
2100
4080
8040
8040
8040
8040
8040
4080
2100
1E00
ENDCHAR
STARTCHAR P
ENCODING 80
SWIDTH 642 0
DWIDTH 9 0
BBX 8 11 0 0
BITMAP
FC
42
41
41
41
42
7C
40
40
40
E0
ENDCHAR
STARTCHAR Q
ENCODING 81
SWIDTH 785 0
DWIDTH 11 0
BBX 10 13 0 -2
BITMAP
1E00
2100
4080
8040
8040
8040
8040
8040
4080
2100
1E00
0200
01C0
ENDCHAR
STARTCHAR R
ENCODING 82
SWIDTH 714 0
DWIDTH 10 0
BBX 9 11 0 0
BITMAP
FC00
4200
4100
4100
4100
4200
7C00
4400
4200
4100
E180
ENDCHAR
STARTCHAR S
ENCODING 83
SWIDTH 571 0
DWIDTH 8 0
BBX 7 11 0 0
BITMAP
3A
46
82
80
60
18
04
02
82
C4
B8
ENDCHAR
STARTCHAR T
ENCODING 84
SWIDTH 714 0
DWIDTH 10 0
BBX 9 11 0 0
BITMAP
FF80
8880
0800
0800
0800
0800
0800
0800
0800
0800
1C00
ENDCHAR
STARTCHAR U
ENCODING 85
SWIDTH 785 0
DWIDTH 11 0
BBX 10 11 0 0
BITMAP
E1C0
4080
4080
4080
4080
4080
4080
4080
4080
2100
1E00
ENDCHAR
STARTCHAR V
ENCODING 86
SWIDTH 714 0
DWIDTH 10 0
BBX 11 11 -1 0
BITMAP
E0E0
4040
4040
2080
2080
1100
1100
0A00
0A00
0400
0400
ENDCHAR
STARTCHAR W
ENCODING 87
SWIDTH 928 0
DWIDTH 13 0
BBX 14 11 -1 0
BITMAP
E71C
4208
4208
2110
2110
2310
14A0
14A0
14A0
0840
0840
ENDCHAR
STARTCHAR X
ENCODING 88
SWIDTH 714 0
DWIDTH 10 0
BBX 9 11 0 0
BITMAP
E380
4100
2200
1400
1400
0800
1400
1400
2200
4100
E380
ENDCHAR
STARTCHAR Y
ENCODING 89
SWIDTH 714 0
DWIDTH 10 0
BBX 11 11 -1 0
BITMAP
E0E0
4040
2080
1100
1100
0A00
0400
0400
0400
0400
0E00
ENDCHAR
STARTCHAR Z
ENCODING 90
SWIDTH 642 0
DWIDTH 9 0
BBX 8 11 0 0
BITMAP
FF
81
02
04
08
08
10
20
40
81
FF
ENDCHAR
STARTCHAR bracketleft
ENCODING 91
SWIDTH 214 0
DWIDTH 3 0
BBX 2 14 0 -2
BITMAP
C0
80
80
80
80
80
80
80
80
80
80
80
80
C0
ENDCHAR
STARTCHAR backslash
ENCODING 92
SWIDTH 428 0
DWIDTH 6 0
BBX 7 14 -1 -2
BITMAP
80
80
40
40
20
20
10
10
08
08
04
04
02
02
ENDCHAR
STARTCHAR bracketright
ENCODING 93
SWIDTH 214 0
DWIDTH 3 0
BBX 2 14 0 -2
BITMAP
C0
40
40
40
40
40
40
40
40
40
40
40
40
C0
ENDCHAR
STARTCHAR asciicircum
ENCODING 94
SWIDTH 428 0
DWIDTH 6 0
BBX 5 6 0 5
BITMAP
20
20
50
50
88
88
ENDCHAR
STARTCHAR underscore
ENCODING 95
SWIDTH 571 0
DWIDTH 8 0
BBX 8 1 -1 -2
BITMAP
FF
ENDCHAR
STARTCHAR grave
ENCODING 96
SWIDTH 285 0
DWIDTH 4 0
BBX 3 2 0 9
BITMAP
C0
20
ENDCHAR
STARTCHAR a
ENCODING 97
SWIDTH 571 0
DWIDTH 8 0
BBX 7 8 0 0
BITMAP
78
84
0C
34
44
84
8C
72
ENDCHAR
STARTCHAR b
ENCODING 98
SWIDTH 571 0
DWIDTH 8 0
BBX 8 11 -1 0
BITMAP
C0
40
40
5C
62
41
41
41
41
62
5C
ENDCHAR
STARTCHAR c
ENCODING 99
SWIDTH 500 0
DWIDTH 7 0
BBX 6 8 0 0
BITMAP
3C
44
80
80
80
80
44
38
ENDCHAR
STARTCHAR d
ENCODING 100
SWIDTH 642 0
DWIDTH 9 0
BBX 8 11 0 0
BITMAP
06
02
02
3A
46
82
82
82
82
46
39
ENDCHAR
STARTCHAR e
ENCODING 101
SWIDTH 571 0
DWIDTH 8 0
BBX 7 8 0 0
BITMAP
38
44
82
FE
80
80
42
3C
ENDCHAR
STARTCHAR f
ENCODING 102
SWIDTH 357 0
DWIDTH 5 0
BBX 5 11 0 0
BITMAP
38
48
40
F0
40
40
40
40
40
40
E0
ENDCHAR
STARTCHAR g
ENCODING 103
SWIDTH 571 0
DWIDTH 8 0
BBX 7 11 0 -3
BITMAP
36
48
84
84
48
70
80
7C
82
82
7C
ENDCHAR
STARTCHAR h
ENCODING 104
SWIDTH 642 0
DWIDTH 9 0
BBX 8 11 0 0
BITMAP
C0
40
40
5C
62
42
42
42
42
42
E7
ENDCHAR
STARTCHAR i
ENCODING 105
SWIDTH 285 0
DWIDTH 4 0
BBX 3 11 0 0
BITMAP
40
40
00
C0
40
40
40
40
40
40
E0
ENDCHAR
STARTCHAR j
ENCODING 106
SWIDTH 285 0
DWIDTH 4 0
BBX 3 14 -1 -3
BITMAP
20
20
00
60
20
20
20
20
20
20
20
20
20
C0
ENDCHAR
STARTCHAR k
ENCODING 107
SWIDTH 642 0
DWIDTH 9 0
BBX 8 11 0 0
BITMAP
C0
40
40
4E
48
50
70
48
44
42
E7
ENDCHAR
STARTCHAR l
ENCODING 108
SWIDTH 285 0
DWIDTH 4 0
BBX 3 11 0 0
BITMAP
C0
40
40
40
40
40
40
40
40
40
E0
ENDCHAR
STARTCHAR m
ENCODING 109
SWIDTH 1000 0
DWIDTH 14 0
BBX 13 8 0 0
BITMAP
DCE0
6310
4210
4210
4210
4210
4210
E738
ENDCHAR
STARTCHAR n
ENCODING 110
SWIDTH 642 0
DWIDTH 9 0
BBX 8 8 0 0
BITMAP
DC
62
42
42
42
42
42
E7
ENDCHAR
STARTCHAR o
ENCODING 111
SWIDTH 571 0
DWIDTH 8 0
BBX 7 8 0 0
BITMAP
38
44
82
82
82
82
44
38
ENDCHAR
STARTCHAR p
ENCODING 112
SWIDTH 642 0
DWIDTH 9 0
BBX 8 11 0 -3
BITMAP
DC
62
41
41
41
41
62
5C
40
40
E0
ENDCHAR
STARTCHAR q
ENCODING 113
SWIDTH 571 0
DWIDTH 8 0
BBX 8 11 0 -3
BITMAP
3A
46
82
82
82
82
46
3A
02
02
07
ENDCHAR
STARTCHAR r
ENCODING 114
SWIDTH 500 0
DWIDTH 7 0
BBX 6 8 0 0
BITMAP
DC
64
40
40
40
40
40
E0
ENDCHAR
STARTCHAR s
ENCODING 115
SWIDTH 500 0
DWIDTH 7 0
BBX 6 8 0 0
BITMAP
74
8C
84
60
18
84
C4
B8
ENDCHAR
STARTCHAR t
ENCODING 116
SWIDTH 428 0
DWIDTH 6 0
BBX 5 10 0 0
BITMAP
40
40
F8
40
40
40
40
40
40
38
ENDCHAR
STARTCHAR u
ENCODING 117
SWIDTH 642 0
DWIDTH 9 0
BBX 8 8 0 0
BITMAP
C6
42
42
42
42
42
46
39
ENDCHAR
STARTCHAR v
ENCODING 118
SWIDTH 571 0
DWIDTH 8 0
BBX 9 8 -1 0
BITMAP
E380
4100
2200
2200
1400
1400
0800
0800
ENDCHAR
STARTCHAR w
ENCODING 119
SWIDTH 857 0
DWIDTH 12 0
BBX 13 8 -1 0
BITMAP
E238
4210
4510
2520
28A0
28A0
1040
1040
ENDCHAR
STARTCHAR x
ENCODING 120
SWIDTH 642 0
DWIDTH 9 0
BBX 8 8 0 0
BITMAP
E7
42
24
18
18
24
42
E7
ENDCHAR
STARTCHAR y
ENCODING 121
SWIDTH 571 0
DWIDTH 8 0
BBX 9 11 -1 -3
BITMAP
E380
4100
2200
2200
1400
1400
0800
0800
1000
1000
6000
ENDCHAR
STARTCHAR z
ENCODING 122
SWIDTH 500 0
DWIDTH 7 0
BBX 6 8 0 0
BITMAP
FC
84
08
10
20
40
84
FC
ENDCHAR
STARTCHAR braceleft
ENCODING 123
SWIDTH 285 0
DWIDTH 4 0
BBX 3 13 0 -2
BITMAP
20
40
40
40
40
40
80
40
40
40
40
40
20
ENDCHAR
STARTCHAR bar
ENCODING 124
SWIDTH 285 0
DWIDTH 4 0
BBX 1 13 1 -2
BITMAP
80
80
80
80
80
80
80
80
80
80
80
80
80
ENDCHAR
STARTCHAR braceright
ENCODING 125
SWIDTH 285 0
DWIDTH 4 0
BBX 3 13 0 -2
BITMAP
80
40
40
40
40
40
20
40
40
40
40
40
80
ENDCHAR
STARTCHAR asciitilde
ENCODING 126
SWIDTH 500 0
DWIDTH 7 0
BBX 7 3 0 5
BITMAP
62
92
8C
ENDCHAR
STARTCHAR char007f
ENCODING 127
SWIDTH 0 0
DWIDTH 0 0
BBX 0 0 -2 -3
BITMAP
ENDCHAR
STARTCHAR Adieresis
ENCODING 128
SWIDTH 714 0
DWIDTH 10 0
BBX 11 13 -1 0
BITMAP
0900
0000
0400
0400
0A00
0A00
1100
1100
2080
3F80
4040
4040
E0E0
ENDCHAR
STARTCHAR Aring
ENCODING 129
SWIDTH 714 0
DWIDTH 10 0
BBX 11 14 -1 0
BITMAP
0600
0900
0600
0400
0400
0A00
0A00
1100
1100
2080
3F80
4040
4040
E0E0
ENDCHAR
STARTCHAR Ccedilla
ENCODING 130
SWIDTH 714 0
DWIDTH 10 0
BBX 9 14 0 -3
BITMAP
1E80
2180
4080
8000
8000
8000
8000
8000
4080
2100
1E00
0800
0400
1800
ENDCHAR
STARTCHAR Eacute
ENCODING 131
SWIDTH 642 0
DWIDTH 9 0
BBX 8 14 0 0
BITMAP
0C
10
00
FF
41
40
40
42
7E
42
40
40
41
FF
ENDCHAR
STARTCHAR Ntilde
ENCODING 132
SWIDTH 785 0
DWIDTH 11 0
BBX 10 14 0 0
BITMAP
1900
2600
0000
E1C0
6080
5080
5080
4880
4480
4480
4280
4280
4180
E080
ENDCHAR
STARTCHAR Odieresis
ENCODING 133
SWIDTH 857 0
DWIDTH 12 0
BBX 10 13 0 0
BITMAP
1200
0000
1E00
2100
4080
8040
8040
8040
8040
8040
4080
2100
1E00
ENDCHAR
STARTCHAR Udieresis
ENCODING 134
SWIDTH 785 0
DWIDTH 11 0
BBX 10 13 0 0
BITMAP
1200
0000
E1C0
4080
4080
4080
4080
4080
4080
4080
4080
2100
1E00
ENDCHAR
STARTCHAR aacute
ENCODING 135
SWIDTH 571 0
DWIDTH 8 0
BBX 7 11 0 0
BITMAP
18
20
00
78
84
0C
34
44
84
8C
72
ENDCHAR
STARTCHAR agrave
ENCODING 136
SWIDTH 571 0
DWIDTH 8 0
BBX 7 11 0 0
BITMAP
60
10
00
78
84
0C
34
44
84
8C
72
ENDCHAR
STARTCHAR acircumflex
ENCODING 137
SWIDTH 571 0
DWIDTH 8 0
BBX 7 11 0 0
BITMAP
30
48
00
78
84
0C
34
44
84
8C
72
ENDCHAR
STARTCHAR adieresis
ENCODING 138
SWIDTH 571 0
DWIDTH 8 0
BBX 7 10 0 0
BITMAP
48
00
78
84
0C
34
44
84
8C
72
ENDCHAR
STARTCHAR atilde
ENCODING 139
SWIDTH 571 0
DWIDTH 8 0
BBX 7 11 0 0
BITMAP
64
98
00
78
84
0C
34
44
84
8C
72
ENDCHAR
STARTCHAR aring
ENCODING 140
SWIDTH 571 0
DWIDTH 8 0
BBX 7 11 0 0
BITMAP
30
48
30
78
84
0C
34
44
84
8C
72
ENDCHAR
STARTCHAR ccedilla
ENCODING 141
SWIDTH 500 0
DWIDTH 7 0
BBX 6 11 0 -3
BITMAP
3C
44
80
80
80
80
44
38
10
08
30
ENDCHAR
STARTCHAR eacute
ENCODING 142
SWIDTH 571 0
DWIDTH 8 0
BBX 7 11 0 0
BITMAP
18
20
00
38
44
82
FE
80
80
42
3C
ENDCHAR
STARTCHAR egrave
ENCODING 143
SWIDTH 571 0
DWIDTH 8 0
BBX 7 11 0 0
BITMAP
30
08
00
38
44
82
FE
80
80
42
3C
ENDCHAR
STARTCHAR ecircumflex
ENCODING 144
SWIDTH 571 0
DWIDTH 8 0
BBX 7 11 0 0
BITMAP
18
24
00
38
44
82
FE
80
80
42
3C
ENDCHAR
STARTCHAR edieresis
ENCODING 145
SWIDTH 571 0
DWIDTH 8 0
BBX 7 10 0 0
BITMAP
24
00
38
44
82
FE
80
80
42
3C
ENDCHAR
STARTCHAR iacute
ENCODING 146
SWIDTH 285 0
DWIDTH 4 0
BBX 3 11 0 0
BITMAP
60
80
00
C0
40
40
40
40
40
40
E0
ENDCHAR
STARTCHAR igrave
ENCODING 147
SWIDTH 285 0
DWIDTH 4 0
BBX 3 11 0 0
BITMAP
C0
20
00
C0
40
40
40
40
40
40
E0
ENDCHAR
STARTCHAR icircumflex
ENCODING 148
SWIDTH 285 0
DWIDTH 4 0
BBX 4 11 -1 0
BITMAP
60
90
00
60
20
20
20
20
20
20
70
ENDCHAR
STARTCHAR idieresis
ENCODING 149
SWIDTH 285 0
DWIDTH 4 0
BBX 4 10 -1 0
BITMAP
90
00
60
20
20
20
20
20
20
70
ENDCHAR
STARTCHAR ntilde
ENCODING 150
SWIDTH 642 0
DWIDTH 9 0
BBX 8 11 0 0
BITMAP
32
4C
00
DC
62
42
42
42
42
42
E7
ENDCHAR
STARTCHAR oacute
ENCODING 151
SWIDTH 571 0
DWIDTH 8 0
BBX 7 11 0 0
BITMAP
18
20
00
38
44
82
82
82
82
44
38
ENDCHAR
STARTCHAR ograve
ENCODING 152
SWIDTH 571 0
DWIDTH 8 0
BBX 7 11 0 0
BITMAP
30
08
00
38
44
82
82
82
82
44
38
ENDCHAR
STARTCHAR ocircumflex
ENCODING 153
SWIDTH 571 0
DWIDTH 8 0
BBX 7 11 0 0
BITMAP
18
24
00
38
44
82
82
82
82
44
38
ENDCHAR
STARTCHAR odieresis
ENCODING 154
SWIDTH 571 0
DWIDTH 8 0
BBX 7 10 0 0
BITMAP
24
00
38
44
82
82
82
82
44
38
ENDCHAR
STARTCHAR otilde
ENCODING 155
SWIDTH 571 0
DWIDTH 8 0
BBX 7 11 0 0
BITMAP
32
4C
00
38
44
82
82
82
82
44
38
ENDCHAR
STARTCHAR uacute
ENCODING 156
SWIDTH 642 0
DWIDTH 9 0
BBX 8 11 0 0
BITMAP
0C
10
00
C6
42
42
42
42
42
46
39
ENDCHAR
STARTCHAR ugrave
ENCODING 157
SWIDTH 642 0
DWIDTH 9 0
BBX 8 11 0 0
BITMAP
30
08
00
C6
42
42
42
42
42
46
39
ENDCHAR
STARTCHAR ucircumflex
ENCODING 158
SWIDTH 642 0
DWIDTH 9 0
BBX 8 11 0 0
BITMAP
18
24
00
C6
42
42
42
42
42
46
39
ENDCHAR
STARTCHAR udieresis
ENCODING 159
SWIDTH 642 0
DWIDTH 9 0
BBX 8 10 0 0
BITMAP
24
00
C6
42
42
42
42
42
46
39
ENDCHAR
STARTCHAR dagger
ENCODING 160
SWIDTH 857 0
DWIDTH 12 0
BBX 10 10 1 0
BITMAP
6180
9240
9240
7F80
1200
1200
7F80
9240
9240
6180
ENDCHAR
STARTCHAR degree
ENCODING 161
SWIDTH 357 0
DWIDTH 5 0
BBX 4 4 0 8
BITMAP
60
90
90
60
ENDCHAR
STARTCHAR cent
ENCODING 162
SWIDTH 500 0
DWIDTH 7 0
BBX 6 10 0 -1
BITMAP
10
38
54
90
90
90
90
54
38
10
ENDCHAR
STARTCHAR sterling
ENCODING 163
SWIDTH 571 0
DWIDTH 8 0
BBX 7 11 0 0
BITMAP
38
44
40
40
40
F0
40
40
40
42
FC
ENDCHAR
STARTCHAR section
ENCODING 164
SWIDTH 928 0
DWIDTH 13 0
BBX 11 11 1 0
BITMAP
0400
0E00
1F00
2E80
75C0
FBE0
75C0
2E80
1F00
0E00
0400
ENDCHAR
STARTCHAR bullet
ENCODING 165
SWIDTH 500 0
DWIDTH 7 0
BBX 4 4 1 4
BITMAP
60
F0
F0
60
ENDCHAR
STARTCHAR paragraph
ENCODING 166
SWIDTH 642 0
DWIDTH 9 0
BBX 8 12 0 -1
BITMAP
7F
F2
F2
F2
F2
72
12
12
12
12
12
33
ENDCHAR
STARTCHAR germandbls
ENCODING 167
SWIDTH 714 0
DWIDTH 10 0
BBX 9 11 0 0
BITMAP
1C00
2200
4200
4200
C400
4E00
4100
4080
4080
5100
DE00
ENDCHAR
STARTCHAR registered
ENCODING 168
SWIDTH 642 0
DWIDTH 9 0
BBX 8 8 0 0
BITMAP
3C
42
B9
A5
B9
A5
42
3C
ENDCHAR
STARTCHAR copyright
ENCODING 169
SWIDTH 642 0
DWIDTH 9 0
BBX 8 8 0 0
BITMAP
3C
42
99
A1
A1
99
42
3C
ENDCHAR
STARTCHAR trademark
ENCODING 170
SWIDTH 714 0
DWIDTH 10 0
BBX 9 4 0 8
BITMAP
E880
4D80
4A80
4A80
ENDCHAR
STARTCHAR acute
ENCODING 171
SWIDTH 285 0
DWIDTH 4 0
BBX 3 2 0 8
BITMAP
60
80
ENDCHAR
STARTCHAR dieresis
ENCODING 172
SWIDTH 428 0
DWIDTH 6 0
BBX 4 1 1 8
BITMAP
90
ENDCHAR
STARTCHAR notequal
ENCODING 173
SWIDTH 642 0
DWIDTH 9 0
BBX 8 8 0 0
BITMAP
02
04
FF
08
10
FF
20
40
ENDCHAR
STARTCHAR AE
ENCODING 174
SWIDTH 1071 0
DWIDTH 15 0
BBX 15 11 -1 0
BITMAP
03FE
0282
0480
0480
0884
08FC
1F84
2080
2080
4082
E1FE
ENDCHAR
STARTCHAR Oslash
ENCODING 175
SWIDTH 785 0
DWIDTH 11 0
BBX 11 11 -1 0
BITMAP
0F20
10C0
20C0
4120
4220
4420
4820
5020
2040
5080
8F00
ENDCHAR
STARTCHAR infinity
ENCODING 176
SWIDTH 928 0
DWIDTH 13 0
BBX 12 5 0 2
BITMAP
71E0
8B10
8610
8D10
78E0
ENDCHAR
STARTCHAR plusminus
ENCODING 177
SWIDTH 571 0
DWIDTH 8 0
BBX 7 7 0 1
BITMAP
10
10
FE
10
10
00
FE
ENDCHAR
STARTCHAR lessequal
ENCODING 178
SWIDTH 571 0
DWIDTH 8 0
BBX 7 7 0 1
BITMAP
06
38
C0
38
06
00
FE
ENDCHAR
STARTCHAR greaterequal
ENCODING 179
SWIDTH 571 0
DWIDTH 8 0
BBX 7 7 0 1
BITMAP
C0
38
06
38
C0
00
FE
ENDCHAR
STARTCHAR yen
ENCODING 180
SWIDTH 785 0
DWIDTH 11 0
BBX 11 11 0 0
BITMAP
E0E0
4040
2080
1100
0A00
0400
3F80
0400
3F80
0400
0E00
ENDCHAR
STARTCHAR mu
ENCODING 181
SWIDTH 642 0
DWIDTH 9 0
BBX 8 11 0 -3
BITMAP
C6
42
42
42
42
42
46
79
40
40
40
ENDCHAR
STARTCHAR partialdiff
ENCODING 182
SWIDTH 571 0
DWIDTH 8 0
BBX 7 11 0 0
BITMAP
38
04
02
02
3A
46
82
82
82
44
38
ENDCHAR
STARTCHAR summation
ENCODING 183
SWIDTH 571 0
DWIDTH 8 0
BBX 7 12 0 -1
BITMAP
FE
82
40
20
10
08
08
10
20
40
82
FE
ENDCHAR
STARTCHAR product
ENCODING 184
SWIDTH 714 0
DWIDTH 10 0
BBX 9 12 0 -1
BITMAP
FF80
4100
4100
4100
4100
4100
4100
4100
4100
4100
4100
E380
ENDCHAR
STARTCHAR pi
ENCODING 185
SWIDTH 571 0
DWIDTH 8 0
BBX 7 7 0 0
BITMAP
FE
44
44
44
44
46
C4
ENDCHAR
STARTCHAR integral
ENCODING 186
SWIDTH 285 0
DWIDTH 4 0
BBX 3 15 0 -3
BITMAP
20
40
40
40
40
40
40
40
40
40
40
40
40
40
80
ENDCHAR
STARTCHAR ordfeminine
ENCODING 187
SWIDTH 357 0
DWIDTH 5 0
BBX 4 6 0 5
BITMAP
70
90
B0
50
00
F0
ENDCHAR
STARTCHAR ordmasculine
ENCODING 188
SWIDTH 357 0
DWIDTH 5 0
BBX 4 6 0 5
BITMAP
60
90
90
60
00
F0
ENDCHAR
STARTCHAR Omega
ENCODING 189
SWIDTH 785 0
DWIDTH 11 0
BBX 10 11 0 0
BITMAP
1E00
2100
4080
8040
8040
8040
8040
4080
3300
9240
F3C0
ENDCHAR
STARTCHAR ae
ENCODING 190
SWIDTH 928 0
DWIDTH 13 0
BBX 12 8 0 0
BITMAP
79C0
8620
0C10
37F0
4400
8400
8A10
71E0
ENDCHAR
STARTCHAR oslash
ENCODING 191
SWIDTH 571 0
DWIDTH 8 0
BBX 7 8 0 0
BITMAP
3A
44
8A
92
92
A2
44
B8
ENDCHAR
STARTCHAR questiondown
ENCODING 192
SWIDTH 500 0
DWIDTH 7 0
BBX 6 11 0 -3
BITMAP
10
10
00
10
10
20
40
80
84
84
78
ENDCHAR
STARTCHAR exclamdown
ENCODING 193
SWIDTH 214 0
DWIDTH 3 0
BBX 1 11 1 -3
BITMAP
80
80
00
80
80
80
80
80
80
80
80
ENDCHAR
STARTCHAR logicalnot
ENCODING 194
SWIDTH 642 0
DWIDTH 9 0
BBX 8 3 0 3
BITMAP
FF
01
01
ENDCHAR
STARTCHAR radical
ENCODING 195
SWIDTH 571 0
DWIDTH 8 0
BBX 7 12 0 -1
BITMAP
02
02
02
04
04
C4
48
28
28
30
10
10
ENDCHAR
STARTCHAR florin
ENCODING 196
SWIDTH 642 0
DWIDTH 9 0
BBX 9 13 -1 -2
BITMAP
0180
0200
0200
0400
1F00
0400
0800
0800
1000
1000
2000
2000
C000
ENDCHAR
STARTCHAR approxequal
ENCODING 197
SWIDTH 642 0
DWIDTH 9 0
BBX 8 5 0 2
BITMAP
71
8E
00
71
8E
ENDCHAR
STARTCHAR Delta
ENCODING 198
SWIDTH 857 0
DWIDTH 12 0
BBX 11 12 0 0
BITMAP
0400
0400
0A00
0A00
1100
1100
2080
2080
4040
4040
8020
FFE0
ENDCHAR
STARTCHAR guillemotleft
ENCODING 199
SWIDTH 571 0
DWIDTH 8 0
BBX 7 7 0 1
BITMAP
12
24
48
90
48
24
12
ENDCHAR
STARTCHAR guillemotright
ENCODING 200
SWIDTH 571 0
DWIDTH 8 0
BBX 7 7 0 1
BITMAP
90
48
24
12
24
48
90
ENDCHAR
STARTCHAR ellipsis
ENCODING 201
SWIDTH 857 0
DWIDTH 12 0
BBX 9 2 1 0
BITMAP
8880
8880
ENDCHAR
STARTCHAR nbspace
ENCODING 202
SWIDTH 285 0
DWIDTH 4 0
BBX 0 0 -2 -3
BITMAP
ENDCHAR
STARTCHAR Agrave
ENCODING 203
SWIDTH 714 0
DWIDTH 10 0
BBX 11 14 -1 0
BITMAP
0C00
0200
0000
0400
0400
0A00
0A00
1100
1100
2080
3F80
4040
4040
E0E0
ENDCHAR
STARTCHAR Atilde
ENCODING 204
SWIDTH 714 0
DWIDTH 10 0
BBX 11 14 -1 0
BITMAP
0C80
1300
0000
0400
0400
0A00
0A00
1100
1100
2080
3F80
4040
4040
E0E0
ENDCHAR
STARTCHAR Otilde
ENCODING 205
SWIDTH 785 0
DWIDTH 11 0
BBX 10 14 0 0
BITMAP
1900
2600
0000
1E00
2100
4080
8040
8040
8040
8040
8040
4080
2100
1E00
ENDCHAR
STARTCHAR OE
ENCODING 206
SWIDTH 1071 0
DWIDTH 15 0
BBX 14 11 0 0
BITMAP
1FFC
2104
4100
8100
8108
81F8
8108
8100
4100
2104
1FFC
ENDCHAR
STARTCHAR oe
ENCODING 207
SWIDTH 1000 0
DWIDTH 14 0
BBX 13 8 0 0
BITMAP
38E0
4510
8208
83F8
8200
8200
4508
38F0
ENDCHAR
STARTCHAR endash
ENCODING 208
SWIDTH 571 0
DWIDTH 8 0
BBX 7 1 0 5
BITMAP
FE
ENDCHAR
STARTCHAR emdash
ENCODING 209
SWIDTH 1000 0
DWIDTH 14 0
BBX 13 1 0 5
BITMAP
FFF8
ENDCHAR
STARTCHAR quotedblleft
ENCODING 210
SWIDTH 428 0
DWIDTH 6 0
BBX 5 3 0 9
BITMAP
48
90
90
ENDCHAR
STARTCHAR quotedblright
ENCODING 211
SWIDTH 428 0
DWIDTH 6 0
BBX 5 3 0 9
BITMAP
48
48
90
ENDCHAR
STARTCHAR quoteleft
ENCODING 212
SWIDTH 214 0
DWIDTH 3 0
BBX 2 3 0 9
BITMAP
40
80
80
ENDCHAR
STARTCHAR quoteright
ENCODING 213
SWIDTH 214 0
DWIDTH 3 0
BBX 2 3 0 9
BITMAP
40
40
80
ENDCHAR
STARTCHAR divide
ENCODING 214
SWIDTH 571 0
DWIDTH 8 0
BBX 7 7 0 1
BITMAP
10
10
00
FE
00
10
10
ENDCHAR
STARTCHAR lozenge
ENCODING 215
SWIDTH 714 0
DWIDTH 10 0
BBX 9 13 0 -1
BITMAP
0800
0800
1400
2200
2200
4100
C180
4100
2200
2200
1400
0800
0800
ENDCHAR
STARTCHAR ydieresis
ENCODING 216
SWIDTH 571 0
DWIDTH 8 0
BBX 9 13 -1 -3
BITMAP
1200
0000
E380
4100
2200
2200
1400
1400
0800
0800
1000
1000
6000
ENDCHAR
STARTCHAR Ydieresis
ENCODING 217
SWIDTH 714 0
DWIDTH 10 0
BBX 11 13 -1 0
BITMAP
0900
0000
E0E0
4040
2080
1100
1100
0A00
0400
0400
0400
0400
0E00
ENDCHAR
STARTCHAR fraction
ENCODING 218
SWIDTH 500 0
DWIDTH 7 0
BBX 7 14 0 -2
BITMAP
02
02
04
04
08
08
10
10
20
20
40
40
80
80
ENDCHAR
STARTCHAR currency
ENCODING 219
SWIDTH 642 0
DWIDTH 9 0
BBX 8 8 0 0
BITMAP
BD
42
81
81
81
81
42
BD
ENDCHAR
STARTCHAR guilsinglleft
ENCODING 220
SWIDTH 357 0
DWIDTH 5 0
BBX 4 7 0 1
BITMAP
10
20
40
80
40
20
10
ENDCHAR
STARTCHAR guilsinglright
ENCODING 221
SWIDTH 357 0
DWIDTH 5 0
BBX 4 7 0 1
BITMAP
80
40
20
10
20
40
80
ENDCHAR
STARTCHAR fi
ENCODING 222
SWIDTH 571 0
DWIDTH 8 0
BBX 7 12 0 0
BITMAP
1C
24
40
40
FC
44
44
44
44
44
44
EE
ENDCHAR
STARTCHAR fl
ENCODING 223
SWIDTH 642 0
DWIDTH 9 0
BBX 8 12 0 0
BITMAP
1E
22
42
42
F2
42
42
42
42
42
42
E7
ENDCHAR
STARTCHAR daggerdbl
ENCODING 224
SWIDTH 857 0
DWIDTH 12 0
BBX 8 8 2 0
BITMAP
FF
FF
FF
FF
FF
FF
FF
FF
ENDCHAR
STARTCHAR periodcentered
ENCODING 225
SWIDTH 285 0
DWIDTH 4 0
BBX 1 2 1 4
BITMAP
80
80
ENDCHAR
STARTCHAR quotesinglbase
ENCODING 226
SWIDTH 214 0
DWIDTH 3 0
BBX 2 3 0 -1
BITMAP
40
40
80
ENDCHAR
STARTCHAR quotedblbase
ENCODING 227
SWIDTH 428 0
DWIDTH 6 0
BBX 5 3 0 -1
BITMAP
48
48
90
ENDCHAR
STARTCHAR perthousand
ENCODING 228
SWIDTH 1142 0
DWIDTH 16 0
BBX 15 11 0 0
BITMAP
6700
9900
9200
9400
6400
0800
098C
1252
2252
2252
418C
ENDCHAR
STARTCHAR Acircumflex
ENCODING 229
SWIDTH 714 0
DWIDTH 10 0
BBX 11 14 -1 0
BITMAP
0600
0900
0000
0400
0400
0A00
0A00
1100
1100
2080
3F80
4040
4040
E0E0
ENDCHAR
STARTCHAR Ecircumflex
ENCODING 230
SWIDTH 642 0
DWIDTH 9 0
BBX 8 14 0 0
BITMAP
18
24
00
FF
41
40
40
42
7E
42
40
40
41
FF
ENDCHAR
STARTCHAR Aacute
ENCODING 231
SWIDTH 714 0
DWIDTH 10 0
BBX 11 14 -1 0
BITMAP
0600
0800
0000
0400
0400
0A00
0A00
1100
1100
2080
3F80
4040
4040
E0E0
ENDCHAR
STARTCHAR Edieresis
ENCODING 232
SWIDTH 642 0
DWIDTH 9 0
BBX 8 13 0 0
BITMAP
24
00
FF
41
40
40
42
7E
42
40
40
41
FF
ENDCHAR
STARTCHAR Egrave
ENCODING 233
SWIDTH 642 0
DWIDTH 9 0
BBX 8 14 0 0
BITMAP
30
08
00
FF
41
40
40
42
7E
42
40
40
41
FF
ENDCHAR
STARTCHAR Iacute
ENCODING 234
SWIDTH 285 0
DWIDTH 4 0
BBX 4 14 0 0
BITMAP
30
40
00
E0
40
40
40
40
40
40
40
40
40
E0
ENDCHAR
STARTCHAR Icircumflex
ENCODING 235
SWIDTH 285 0
DWIDTH 4 0
BBX 4 14 0 0
BITMAP
60
90
00
E0
40
40
40
40
40
40
40
40
40
E0
ENDCHAR
STARTCHAR Idieresis
ENCODING 236
SWIDTH 285 0
DWIDTH 4 0
BBX 4 13 0 0
BITMAP
90
00
E0
40
40
40
40
40
40
40
40
40
E0
ENDCHAR
STARTCHAR Igrave
ENCODING 237
SWIDTH 285 0
DWIDTH 4 0
BBX 4 14 -1 0
BITMAP
C0
20
00
70
20
20
20
20
20
20
20
20
20
70
ENDCHAR
STARTCHAR Oacute
ENCODING 238
SWIDTH 785 0
DWIDTH 11 0
BBX 10 14 0 0
BITMAP
0600
0800
0000
1E00
2100
4080
8040
8040
8040
8040
8040
4080
2100
1E00
ENDCHAR
STARTCHAR Ocircumflex
ENCODING 239
SWIDTH 785 0
DWIDTH 11 0
BBX 10 14 0 0
BITMAP
0C00
1200
0000
1E00
2100
4080
8040
8040
8040
8040
8040
4080
2100
1E00
ENDCHAR
STARTCHAR apple
ENCODING 240
SWIDTH 714 0
DWIDTH 10 0
BBX 9 11 0 0
BITMAP
0400
0C00
0800
7700
FF80
FE00
FC00
FE00
FF80
7F00
3600
ENDCHAR
STARTCHAR Ograve
ENCODING 241
SWIDTH 785 0
DWIDTH 11 0
BBX 10 14 0 0
BITMAP
1800
0400
0000
1E00
2100
4080
8040
8040
8040
8040
8040
4080
2100
1E00
ENDCHAR
STARTCHAR Uacute
ENCODING 242
SWIDTH 785 0
DWIDTH 11 0
BBX 10 14 0 0
BITMAP
0600
0800
0000
E1C0
4080
4080
4080
4080
4080
4080
4080
4080
2100
1E00
ENDCHAR
STARTCHAR Ucircumflex
ENCODING 243
SWIDTH 785 0
DWIDTH 11 0
BBX 10 14 0 0
BITMAP
0C00
1200
0000
E1C0
4080
4080
4080
4080
4080
4080
4080
4080
2100
1E00
ENDCHAR
STARTCHAR Ugrave
ENCODING 244
SWIDTH 785 0
DWIDTH 11 0
BBX 10 14 0 0
BITMAP
1800
0400
0000
E1C0
4080
4080
4080
4080
4080
4080
4080
4080
2100
1E00
ENDCHAR
STARTCHAR dotlessi
ENCODING 245
SWIDTH 285 0
DWIDTH 4 0
BBX 3 8 0 0
BITMAP
C0
40
40
40
40
40
40
E0
ENDCHAR
STARTCHAR circumflex
ENCODING 246
SWIDTH 357 0
DWIDTH 5 0
BBX 4 2 0 9
BITMAP
60
90
ENDCHAR
STARTCHAR tilde
ENCODING 247
SWIDTH 500 0
DWIDTH 7 0
BBX 6 2 0 9
BITMAP
64
98
ENDCHAR
STARTCHAR macron
ENCODING 248
SWIDTH 357 0
DWIDTH 5 0
BBX 4 1 0 10
BITMAP
F0
ENDCHAR
STARTCHAR breve
ENCODING 249
SWIDTH 357 0
DWIDTH 5 0
BBX 4 2 0 9
BITMAP
90
60
ENDCHAR
STARTCHAR dotaccent
ENCODING 250
SWIDTH 142 0
DWIDTH 2 0
BBX 1 2 0 9
BITMAP
80
80
ENDCHAR
STARTCHAR ring
ENCODING 251
SWIDTH 357 0
DWIDTH 5 0
BBX 4 3 0 9
BITMAP
60
90
60
ENDCHAR
STARTCHAR cedilla
ENCODING 252
SWIDTH 285 0
DWIDTH 4 0
BBX 3 4 0 -3
BITMAP
40
40
20
C0
ENDCHAR
STARTCHAR hungarumlaut
ENCODING 253
SWIDTH 428 0
DWIDTH 6 0
BBX 5 2 0 10
BITMAP
48
90
ENDCHAR
STARTCHAR ogonek
ENCODING 254
SWIDTH 285 0
DWIDTH 4 0
BBX 3 3 0 -3
BITMAP
40
80
60
ENDCHAR
STARTCHAR caron
ENCODING 255
SWIDTH 785 0
DWIDTH 11 0
BBX 3 2 0 10
BITMAP
A0
40
ENDCHAR
ENDFONT
